<svg width="23" height="23" viewBox="0 0 23 23" fill="none" xmlns="http://www.w3.org/2000/svg">
<path d="M16.4963 6.45711L15.7892 7.16421L16.4963 6.45711C16.4835 6.44426 16.4706 6.43143 16.4578 6.41861C16.158 6.1187 15.8667 5.82723 15.594 5.61919C15.2866 5.38466 14.8887 5.16421 14.375 5.16421C13.8613 5.16421 13.4634 5.38466 13.156 5.61919C12.8833 5.82723 12.5919 6.11871 12.2921 6.41864C12.2793 6.43145 12.2665 6.44427 12.2537 6.45711L5.4346 13.2762C5.42152 13.2893 5.40804 13.3027 5.39423 13.3164C5.24206 13.4676 5.04944 13.6591 4.91255 13.9009C4.77567 14.1426 4.7106 14.4063 4.6592 14.6146C4.65453 14.6335 4.64998 14.652 4.64549 14.6699L4.02363 17.1573C4.02083 17.1686 4.0179 17.1802 4.01488 17.1922C3.97806 17.3387 3.92706 17.5416 3.90949 17.7212C3.88927 17.9279 3.88259 18.3798 4.25137 18.7486C4.62014 19.1174 5.0721 19.1107 5.2788 19.0905C5.45841 19.0729 5.66132 19.0219 5.80781 18.9851C5.81982 18.9821 5.83144 18.9792 5.84264 18.9764L8.3301 18.3545C8.34804 18.35 8.36649 18.3455 8.3854 18.3408C8.5937 18.2894 8.85737 18.2243 9.09914 18.0874L9.09914 18.0874C9.3409 17.9506 9.53235 17.7579 9.6836 17.6058C9.69733 17.592 9.71073 17.5785 9.72381 17.5654L16.5429 10.7463C16.5557 10.7335 16.5686 10.7207 16.5814 10.7079C16.8813 10.408 17.1728 10.1167 17.3808 9.84402C17.6153 9.53662 17.8358 9.13866 17.8358 8.625C17.8358 8.11134 17.6153 7.71338 17.3808 7.40598C17.1728 7.13331 16.8813 6.84195 16.5814 6.54214C16.5685 6.52934 16.5557 6.51651 16.5429 6.50368L16.4963 6.45711Z" stroke="white" stroke-width="2"/>
<path d="M11.9792 7.18754L14.8542 5.27087L17.7292 8.14587L15.8125 11.0209L11.9792 7.18754Z" fill="white"/>
</svg>
