<svg width="21" height="21" viewBox="0 0 21 21" fill="none" xmlns="http://www.w3.org/2000/svg">
<path d="M11.4707 6.19717L11.459 6.20894L11.4589 6.20895L5.28816 12.3797L5.28816 12.3797C5.27714 12.3908 5.26619 12.4017 5.25533 12.4125C5.09286 12.5746 4.94903 12.7182 4.84766 12.8972C4.7463 13.0762 4.69723 13.2734 4.64179 13.4961C4.63809 13.511 4.63435 13.526 4.63057 13.5412L4.09204 15.6953C4.08983 15.7041 4.0876 15.713 4.08536 15.722C4.04612 15.8787 4.00421 16.046 3.99046 16.1865C3.97532 16.3413 3.97885 16.6023 4.18826 16.8117C4.39767 17.0211 4.65873 17.0247 4.81346 17.0095C4.95399 16.9958 5.12133 16.9539 5.27801 16.9146C5.28695 16.9124 5.29585 16.9102 5.30471 16.908L5.30472 16.908L5.32649 16.9025L5.32651 16.9025L7.45884 16.3694C7.47396 16.3656 7.48896 16.3619 7.50385 16.3582C7.72659 16.3028 7.92376 16.2537 8.1028 16.1523C8.28183 16.051 8.42535 15.9071 8.58748 15.7447C8.59832 15.7338 8.60924 15.7229 8.62027 15.7118L14.7911 9.54105L14.8108 9.52134C15.0781 9.25404 15.3086 9.0236 15.4737 8.81527C15.6494 8.59348 15.7917 8.34837 15.8262 8.0441C15.839 7.93173 15.839 7.81827 15.8262 7.7059C15.7917 7.40163 15.6494 7.15652 15.4737 6.93473C15.3085 6.72639 15.0781 6.49595 14.8108 6.22865L14.7911 6.20895L14.7854 6.20325L14.7713 6.18922C14.504 5.9219 14.2736 5.69144 14.0653 5.52633C13.8435 5.35055 13.5984 5.2083 13.2941 5.17378C13.1817 5.16103 13.0683 5.16103 12.9559 5.17378C12.6516 5.2083 12.4065 5.35055 12.1847 5.52633C11.9764 5.69145 11.746 5.9219 11.4787 6.18923L11.4707 6.19717Z" stroke="#8D8D8D"/>
<path d="M10.9375 6.5625L13.5625 4.8125L16.1875 7.4375L14.4375 10.0625L10.9375 6.5625Z" fill="#8D8D8D"/>
<line x1="2.625" y1="20.5" x2="17.0625" y2="20.5" stroke="#8D8D8D"/>
</svg>
