<svg width="17" height="17" viewBox="0 0 17 17" xmlns="http://www.w3.org/2000/svg">
<path d="M3.1526 9.85169L8.07737 14.478L8.07738 14.478C8.15248 14.5485 8.19003 14.5838 8.22721 14.608C8.39306 14.716 8.60702 14.716 8.77287 14.608C8.81004 14.5838 8.84759 14.5485 8.92269 14.478L8.92271 14.478L13.8475 9.85169C15.2331 8.55004 15.4014 6.40805 14.236 4.90601L14.0169 4.62357C12.6227 2.8267 9.82436 3.12805 8.84476 5.18054C8.70639 5.47047 8.29369 5.47047 8.15532 5.18054C7.17572 3.12805 4.37735 2.8267 2.98322 4.62357L2.76409 4.906C1.59871 6.40805 1.76698 8.55004 3.1526 9.85169Z" fill="current" stroke="#262626"/>
</svg>
