<svg width="303" height="307" viewBox="0 0 303 307" fill="none" xmlns="http://www.w3.org/2000/svg">
<rect y="150.737" width="150" height="150" transform="rotate(-90 0 150.737)" fill="white"/>
<rect x="0.5" y="150.237" width="149" height="149" transform="rotate(-90 0.5 150.237)" stroke="black" stroke-opacity="0.25"/>
<rect y="150.737" width="150" height="150" transform="rotate(-90 0 150.737)" fill="white"/>
<rect x="0.5" y="150.237" width="149" height="149" transform="rotate(-90 0.5 150.237)" stroke="black" stroke-opacity="0.25"/>
<rect y="150.737" width="150" height="150" transform="rotate(-90 0 150.737)" fill="white"/>
<rect x="0.5" y="150.237" width="149" height="149" transform="rotate(-90 0.5 150.237)" stroke="black" stroke-opacity="0.25"/>
<rect x="153" y="150.737" width="150" height="150" transform="rotate(-90 153 150.737)" fill="white"/>
<rect x="153.5" y="150.237" width="149" height="149" transform="rotate(-90 153.5 150.237)" stroke="black" stroke-opacity="0.25"/>
<rect y="307" width="150" height="150" transform="rotate(-90 0 307)" fill="white"/>
<rect x="0.5" y="306.5" width="149" height="149" transform="rotate(-90 0.5 306.5)" stroke="black" stroke-opacity="0.25"/>
<rect y="307" width="150" height="150" transform="rotate(-90 0 307)" fill="white"/>
<rect x="0.5" y="306.5" width="149" height="149" transform="rotate(-90 0.5 306.5)" stroke="black" stroke-opacity="0.25"/>
<rect y="307" width="150" height="150" transform="rotate(-90 0 307)" fill="white"/>
<rect x="0.5" y="306.5" width="149" height="149" transform="rotate(-90 0.5 306.5)" stroke="black" stroke-opacity="0.25"/>
<rect x="153" y="307" width="150" height="150" transform="rotate(-90 153 307)" fill="white"/>
<rect x="153.5" y="306.5" width="149" height="149" transform="rotate(-90 153.5 306.5)" stroke="black" stroke-opacity="0.25"/>
</svg>
