<svg width="27" height="27" viewBox="0 0 27 27" fill="none" xmlns="http://www.w3.org/2000/svg">
<path d="M5.625 14.3546C5.625 12.8271 5.625 12.0634 5.93377 11.3921C6.24254 10.7207 6.82241 10.2237 7.98216 9.22963L9.10716 8.26535C11.2034 6.46858 12.2515 5.57019 13.5 5.57019C14.7485 5.57019 15.7966 6.46858 17.8928 8.26535L19.0178 9.22963C20.1776 10.2237 20.7575 10.7207 21.0662 11.3921C21.375 12.0634 21.375 12.8271 21.375 14.3546V19.1251C21.375 21.2464 21.375 22.307 20.716 22.966C20.057 23.6251 18.9963 23.6251 16.875 23.6251H10.125C8.00368 23.6251 6.94302 23.6251 6.28401 22.966C5.625 22.307 5.625 21.2464 5.625 19.1251V14.3546Z" stroke="white" stroke-width="2"/>
<path d="M16.3125 23.625V17.875C16.3125 17.3227 15.8648 16.875 15.3125 16.875H11.6875C11.1352 16.875 10.6875 17.3227 10.6875 17.875V23.625" stroke="white" stroke-width="2" stroke-linecap="round" stroke-linejoin="round"/>
</svg>
