<svg width="20" height="20" viewBox="0 0 20 20" fill="none" xmlns="http://www.w3.org/2000/svg">
<path fill-rule="evenodd" clip-rule="evenodd" d="M17.5 10C17.5 14.1421 14.1421 17.5 10 17.5C5.85786 17.5 2.5 14.1421 2.5 10C2.5 5.85786 5.85786 2.5 10 2.5C14.1421 2.5 17.5 5.85786 17.5 10ZM10.8333 15C10.8333 15.4602 10.4602 15.8333 10 15.8333C9.53976 15.8333 9.16667 15.4602 9.16667 15C9.16667 14.5398 9.53976 14.1667 10 14.1667C10.4602 14.1667 10.8333 14.5398 10.8333 15ZM10 4.5C8.34315 4.5 7 5.84315 7 7.5H8C8 6.39543 8.89543 5.5 10 5.5H10.0786C11.1398 5.5 12 6.36025 12 7.42141V7.84905C12 8.4207 11.6342 8.92822 11.0919 9.10899C10.1412 9.42588 9.5 10.3155 9.5 11.3176V13.3333H10.5V11.3176C10.5 10.746 10.8658 10.2384 11.4081 10.0577C12.3588 9.74079 13 8.85113 13 7.84905V7.42141C13 5.80796 11.692 4.5 10.0786 4.5H10Z" fill="#434343"/>
</svg>
