<svg width="25" height="25" viewBox="0 0 25 25" fill="none" xmlns="http://www.w3.org/2000/svg">
<path d="M12.5 5.20837L11.7929 4.50127L12.5 3.79416L13.2071 4.50127L12.5 5.20837ZM13.5 14.5834C13.5 15.1357 13.0523 15.5834 12.5 15.5834C11.9477 15.5834 11.5 15.1357 11.5 14.5834L13.5 14.5834ZM6.58455 9.7096L11.7929 4.50127L13.2071 5.91548L7.99876 11.1238L6.58455 9.7096ZM13.2071 4.50127L18.4154 9.7096L17.0012 11.1238L11.7929 5.91548L13.2071 4.50127ZM13.5 5.20837L13.5 14.5834L11.5 14.5834L11.5 5.20837L13.5 5.20837Z" fill="white"/>
<path d="M5.20834 16.6666L5.20834 17.7083C5.20834 18.8589 6.14108 19.7916 7.29168 19.7916L17.7083 19.7916C18.8589 19.7916 19.7917 18.8589 19.7917 17.7083V16.6666" stroke="white" stroke-width="2"/>
</svg>
