<svg width="294" height="45" viewBox="0 0 294 45" fill="none" xmlns="http://www.w3.org/2000/svg">
<rect width="294" height="45" rx="6" fill="#FEE500"/>
<g clip-path="url(#clip0_501_1095)">
<path fill-rule="evenodd" clip-rule="evenodd" d="M102 14.1C97.0292 14.1 93.0001 17.213 93.0001 21.0523C93.0001 23.44 94.5585 25.545 96.9316 26.797L95.9331 30.4445C95.8449 30.7668 96.2135 31.0237 96.4965 30.8369L100.873 27.9482C101.243 27.9839 101.618 28.0047 102 28.0047C106.971 28.0047 111 24.8918 111 21.0523C111 17.213 106.971 14.1 102 14.1Z" fill="black"/>
</g>
<path d="M126.215 16.215C126.2 20.79 124.115 23.85 120.29 25.86L119.3 24.75C121.235 23.865 122.855 22.44 123.77 20.595L119.855 21.015L119.615 19.68L124.28 19.335C124.445 18.735 124.565 18.12 124.61 17.46H120.29V16.215H126.215ZM129.83 14.82V20.04H131.9V21.315H129.83V28.185H128.285V14.82H129.83ZM139.194 16.215C139.179 20.79 137.094 23.85 133.269 25.86L132.279 24.75C134.214 23.865 135.834 22.44 136.749 20.595L132.834 21.015L132.594 19.68L137.259 19.335C137.424 18.735 137.544 18.12 137.589 17.46H133.269V16.215H139.194ZM142.809 14.82V20.04H144.879V21.315H142.809V28.185H141.264V14.82H142.809ZM157.482 26.475H145.407V25.245H150.657V22.965C148.182 22.725 146.607 21.315 146.607 19.32C146.607 17.115 148.542 15.645 151.437 15.645C154.377 15.645 156.297 17.115 156.297 19.32C156.297 21.33 154.692 22.74 152.187 22.98V25.245H157.482V26.475ZM154.752 19.335C154.752 17.91 153.447 16.905 151.437 16.905C149.472 16.905 148.152 17.91 148.152 19.335C148.152 20.745 149.472 21.705 151.437 21.705C153.432 21.705 154.752 20.745 154.752 19.335ZM173.231 23.025H169.106V25.26H174.401V26.49H162.326V25.26H167.576V23.025H163.871V18.705H171.311V16.98H163.826V15.75H172.841V19.95H165.416V21.78H173.231V23.025ZM187.379 26.235H175.304V24.99H187.379V26.235ZM185.804 16.26C185.804 19.8 185.579 22.305 185.219 24.06L183.704 23.865C184.034 22.53 184.259 19.635 184.259 17.475H176.699V16.26H185.804ZM199.278 24.51H197.748V14.82H199.278V24.51ZM199.593 27.795H190.443V23.595H191.973V26.565H199.593V27.795ZM195.528 19.08C195.528 20.985 194.148 22.35 192.108 22.35C190.068 22.35 188.658 20.985 188.658 19.095C188.658 17.19 190.053 15.81 192.108 15.81C194.148 15.81 195.528 17.175 195.528 19.08ZM193.998 19.08C193.998 17.91 193.278 17.085 192.108 17.085C190.968 17.085 190.203 17.94 190.203 19.08C190.203 20.175 190.968 21.045 192.108 21.045C193.278 21.045 193.998 20.175 193.998 19.08Z" fill="black" fill-opacity="0.85"/>
<defs>
<clipPath id="clip0_501_1095">
<rect width="17.9999" height="18" fill="white" transform="translate(93.0001 13.5)"/>
</clipPath>
</defs>
</svg>
