<svg width="171" height="185" viewBox="0 0 171 185" fill="none" xmlns="http://www.w3.org/2000/svg">
<rect x="4.5" y="21.5" width="80" height="78" rx="8.5" fill="#A8C9E7" stroke="#A8C9E7" stroke-width="3"/>
<rect x="89.5" y="20.5" width="81" height="80" rx="9.5" fill="#A8C9E7" stroke="#A8C9E7"/>
<rect x="3" y="105" width="83" height="80" rx="10" fill="#A8C9E7"/>
<rect x="89" y="105" width="82" height="80" rx="10" fill="#A8C9E7"/>
<path d="M28.5811 48.7617L27.3506 39.3965C27.3506 38.8496 27.8291 38.3027 28.7178 37.8242C29.5381 37.3457 30.4951 37.0039 31.5889 36.7988C32.1357 36.7305 32.6826 36.7305 33.2979 36.7305C33.8447 36.7305 34.3916 36.8672 34.8701 37.0039C35.3486 37.1406 35.7588 37.3457 36.1006 37.6191C36.374 37.8926 36.5791 38.166 36.6475 38.5762L37.8779 48.625L43.7568 48.5566C44.7822 48.5566 45.5342 48.8984 46.0127 49.5137C46.4912 50.1289 46.6963 50.8125 46.6963 51.4961C46.5596 52.3164 46.2861 53 45.7393 53.5469C45.1924 54.1621 44.3721 54.4355 43.3467 54.4355L22.0186 55.1191C20.7881 55.1191 19.8994 54.8457 19.2842 54.1621C18.6689 53.5469 18.3271 52.7949 18.2588 51.9746C18.1221 51.2227 18.3271 50.5391 18.8057 49.8555C19.2842 49.1719 20.1045 48.8301 21.1982 48.8301L28.5811 48.7617ZM31.7256 79.7969C29.8115 79.7969 28.1709 79.5234 26.7354 78.9766C25.2314 78.4297 24.001 77.6777 23.0439 76.7207C22.0186 75.7637 21.2666 74.5332 20.8564 73.166C20.4463 71.7988 20.3096 70.3633 20.5146 68.7227C20.6514 67.082 21.1982 65.6465 22.0186 64.2793C22.8389 62.9121 23.7959 61.75 25.0264 60.793C26.2568 59.8359 27.624 59.084 29.1279 58.5371C30.6318 57.9902 32.2041 57.7168 33.8447 57.7168C35.4854 57.7168 36.9893 57.9902 38.4248 58.5371C39.8604 59.084 41.0908 59.7676 42.1846 60.7246C43.21 61.6816 44.0303 62.8438 44.5771 64.2109C45.124 65.5781 45.2607 67.082 45.124 68.7227C44.9189 70.4316 44.3721 71.9355 43.5518 73.3027C42.7314 74.6699 41.7061 75.832 40.4756 76.7891C39.2451 77.7461 37.8096 78.498 36.3057 79.0449C34.8018 79.5918 33.2295 79.7969 31.7256 79.7969ZM33.1611 63.2539C32.0674 63.2539 31.1104 63.7324 30.29 64.6895C29.4697 65.6465 28.9912 67.082 28.9229 69.1328C28.7861 71.1836 29.1279 72.5508 29.8799 73.3027C30.6318 74.123 31.5205 74.4648 32.4775 74.4648C33.7764 74.4648 34.7334 73.9863 35.417 73.0293C36.1006 72.0723 36.4424 70.7734 36.5791 69.1328C36.7158 67.2188 36.4424 65.7148 35.8271 64.7578C35.2119 63.8008 34.3232 63.2539 33.1611 63.2539ZM52.7803 42.4043C52.7803 41.8574 53.1904 41.4473 54.1475 41.1055C55.1045 40.7637 56.1299 40.5586 57.3604 40.4219C58.5225 40.4219 59.6162 40.4902 60.5732 40.7637C61.5303 41.0371 62.0771 41.4473 62.0771 41.9941L62.2822 54.5039L69.7334 54.0254C70.6904 54.0254 71.4424 54.3672 71.9893 54.9824C72.5361 55.666 72.8779 56.3496 72.8779 57.1016C72.8779 57.9219 72.5361 58.6055 71.9893 59.2891C71.4424 59.9727 70.6221 60.3145 69.5283 60.3145L62.4189 60.8613L62.7607 83.9668C62.7607 84.5137 62.2822 84.9238 61.3936 85.1973C60.5049 85.5391 59.5479 85.7441 58.5908 85.8809C57.3604 86.0176 56.2666 85.9492 55.3096 85.6758C54.3525 85.4707 53.874 84.9922 53.874 84.2402L52.7803 42.4043Z" fill="white"/>
<path d="M141.702 129.795C141.634 128.086 141.565 126.24 141.565 124.189C141.565 122.139 141.565 120.361 141.565 118.721C141.565 118.242 141.976 117.832 142.864 117.422C143.753 117.08 144.778 116.807 145.94 116.67C147.034 116.602 148.128 116.67 149.153 116.875C150.179 117.08 150.726 117.49 150.726 118.174L151.272 149.756C151.272 150.234 150.794 150.645 149.837 150.986C148.88 151.328 147.854 151.533 146.829 151.602C145.599 151.738 144.505 151.738 143.548 151.465C142.591 151.26 142.112 150.781 142.112 150.029L141.839 136.289L135.892 136.768C134.798 136.904 133.909 136.631 133.294 135.947C132.884 135.605 132.61 135.195 132.474 134.785C132.474 137.246 132.405 139.707 132.269 142.031C132.132 142.715 131.585 143.193 130.628 143.535C129.603 143.945 128.509 144.082 127.415 144.082C126.185 144.082 125.159 143.945 124.271 143.535C123.313 143.193 122.903 142.646 122.972 141.895V136.973L109.983 138.955C109.026 139.297 108.274 139.16 107.659 138.613C107.044 138.066 106.634 137.314 106.497 136.426C106.36 135.811 106.429 135.195 106.771 134.512C107.044 133.896 107.659 133.486 108.548 133.281L122.835 130.82L122.562 125.557L109.778 126.377C108.753 126.377 108.001 126.104 107.522 125.557C106.976 125.01 106.771 124.326 106.839 123.574C106.839 122.891 107.044 122.275 107.591 121.66C108.138 121.113 108.958 120.771 110.052 120.635L125.979 119.541C127.483 119.473 128.782 119.746 129.944 120.361C131.038 121.045 131.722 121.865 131.858 122.959C132.132 126.035 132.337 129.111 132.474 132.119C132.474 131.982 132.61 131.777 132.747 131.641C133.157 130.957 133.841 130.547 134.935 130.342L141.702 129.795ZM132.269 150.166C132.61 149.551 133.294 149.209 134.388 149.141C135.481 149.141 136.507 149.346 137.601 149.824C138.421 150.303 139.104 150.85 139.651 151.465C140.198 152.148 140.403 152.695 140.13 153.174L137.942 156.729C138.216 157.07 138.558 157.412 138.968 157.686C139.31 158.027 139.856 158.506 140.608 159.053C141.36 159.668 142.386 160.42 143.685 161.309C144.915 162.266 146.624 163.428 148.812 164.863C149.085 165.137 149.222 165.684 149.222 166.504C149.222 167.324 149.017 168.008 148.675 168.555C147.991 169.512 147.171 170.059 146.214 170.264C145.188 170.537 144.231 170.264 143.274 169.443L134.114 162.744L128.919 171.084C128.44 171.768 127.688 172.041 126.595 171.904C125.501 171.768 124.476 171.426 123.519 170.742C122.835 170.332 122.22 169.785 121.81 169.238C121.331 168.691 121.263 168.213 121.673 167.803L132.269 150.166Z" fill="white"/>
<path d="M21.3262 151.492C21.0527 150.125 20.7793 148.553 20.6426 146.844C20.4375 145.135 20.3008 143.426 20.1641 141.648C20.0273 139.871 19.959 138.162 19.8906 136.453C19.8223 134.744 19.8223 133.172 19.8223 131.736C19.8223 131.053 20.3008 130.506 21.3262 130.232C22.2832 129.959 23.377 129.891 24.6074 129.891C25.7695 130.027 26.8633 130.301 27.8203 130.643C28.7773 131.053 29.2559 131.531 29.2559 132.146C28.9824 135.018 28.9824 137.889 29.1875 140.828C29.3242 143.768 29.8027 146.775 30.4863 149.852C30.5547 150.125 30.6914 150.33 30.8281 150.467C30.9648 150.672 31.3066 150.74 31.7168 150.74C33.1523 150.74 34.3828 150.672 35.4766 150.398C36.502 150.193 37.7324 149.92 39.168 149.578C40.2617 149.305 41.1504 149.441 41.9023 149.92C42.6543 150.398 43.1328 151.082 43.3379 151.971C43.4746 152.654 43.4062 153.338 43.0645 153.953C42.7227 154.637 42.0391 155.115 41.0137 155.457C38.6211 156.004 36.4336 156.414 34.3828 156.688C32.332 157.029 30.0762 157.098 27.6152 156.824C25.8379 156.756 24.4023 156.209 23.3086 155.184C22.2148 154.227 21.5312 152.996 21.3262 151.492ZM47.6445 141.58L42.0391 141.717C40.8086 141.854 39.9199 141.58 39.3047 140.965C38.6895 140.35 38.3477 139.666 38.3477 138.914C38.2109 138.23 38.416 137.547 38.8945 136.932C39.3047 136.316 40.0566 135.975 41.082 135.838L47.5762 135.496L47.3027 128.182C47.3027 127.635 47.7129 127.225 48.5332 126.814C49.3535 126.404 50.3105 126.131 51.4043 125.994C51.9512 125.994 52.498 125.926 53.0449 125.926C53.5918 125.926 54.0703 125.994 54.4805 126.131C54.8906 126.268 55.3008 126.404 55.5742 126.609C55.8477 126.814 56.0527 127.088 56.0527 127.361L57.0098 164.275C57.0098 164.822 56.5312 165.232 55.6426 165.506C54.6855 165.848 53.7285 166.053 52.6348 166.189C51.4043 166.326 50.3789 166.258 49.5586 165.984C48.6699 165.711 48.1914 165.232 48.123 164.549L47.6445 141.58ZM59.1973 126.541C59.1973 125.994 59.6074 125.584 60.4961 125.174C61.3164 124.832 62.3418 124.559 63.5039 124.422C64.666 124.422 65.7598 124.49 66.7168 124.695C67.6738 124.9 68.2207 125.311 68.2207 125.857L68.9043 167.967C68.9043 168.514 68.4258 168.924 67.6055 169.197C66.7168 169.539 65.7598 169.744 64.8027 169.881C63.5723 170.018 62.4785 169.949 61.5215 169.676C60.5645 169.471 60.1543 168.992 60.1543 168.24L59.1973 126.541Z" fill="white"/>
<path d="M118.232 46.8809L126.846 45.9238C126.846 45.377 126.914 44.7617 126.914 44.0781C126.914 43.3945 126.982 42.6426 126.982 41.8223C125.342 41.8223 123.701 41.8906 122.061 41.959C120.42 42.0273 118.506 42.0957 116.25 42.2324C115.156 42.5059 114.336 42.3008 113.721 41.6172C113.105 40.9336 112.832 40.25 112.832 39.4297C112.764 38.6777 112.969 37.9941 113.516 37.3105C113.994 36.627 114.814 36.2852 115.977 36.2168C116.523 36.2168 117.07 36.2168 117.754 36.2168C118.369 36.2168 119.189 36.1484 120.215 36.0801C121.172 36.0801 122.471 36.0117 124.043 35.9434C125.547 35.9434 127.529 35.875 129.922 35.8066C130.674 35.8066 131.426 35.9434 132.246 36.0801C132.998 36.2852 133.682 36.5586 134.297 36.832C134.844 37.1738 135.322 37.584 135.732 37.9941C136.074 38.4043 136.279 38.8828 136.279 39.3613L135.596 48.1113C135.322 50.0938 133.682 51.1191 130.811 51.2559L122.197 52.4863L123.154 56.8613C124.932 56.793 126.777 56.5879 128.691 56.3145C130.605 56.041 132.52 55.5625 134.365 54.9473C135.459 54.6738 136.416 54.8789 137.1 55.4258C137.783 56.041 138.193 56.793 138.467 57.6816C138.604 58.502 138.467 59.1855 138.125 59.8691C137.715 60.5527 137.031 61.0312 136.006 61.2363C133.818 61.6465 131.289 62.0566 128.555 62.3301C125.82 62.6719 123.154 62.877 120.557 62.877C119.053 62.877 117.822 62.6035 116.729 62.0566C115.635 61.5098 115.02 60.6895 114.746 59.5957C114.609 59.1855 114.404 58.5703 114.268 57.8184C114.131 57.0664 113.926 56.3145 113.789 55.4941C113.584 54.6738 113.447 53.9219 113.311 53.1699C113.174 52.418 113.174 51.8027 113.174 51.2559C113.174 50.0938 113.652 49.1367 114.609 48.3164C115.566 47.5645 116.797 47.0859 118.232 46.8809ZM122.471 73.1309L110.986 73.4043C109.961 73.541 109.209 73.2676 108.662 72.6523C108.115 72.0371 107.842 71.2852 107.842 70.4648C107.705 69.7812 107.842 69.0977 108.252 68.4141C108.594 67.7305 109.209 67.3203 110.098 67.1152L139.082 66.2949C140.039 66.2949 140.791 66.6367 141.338 67.252C141.885 67.9355 142.158 68.6191 142.227 69.3711C142.227 70.1914 141.953 70.9434 141.406 71.627C140.859 72.3789 140.039 72.7207 138.877 72.7207L131.494 72.9941L129.99 87.8281C129.854 88.5117 129.238 88.9219 128.281 89.1953C127.324 89.4688 126.23 89.6055 125.068 89.4688C123.906 89.332 122.881 89.127 122.061 88.7852C121.24 88.4434 120.83 87.9648 120.967 87.418L122.471 73.1309Z" fill="white"/>
</svg>
